<svg width="80" height="80" viewBox="0 0 80 80" fill="none" xmlns="http://www.w3.org/2000/svg">
<g filter="url(#filter0_d_824_53)">
<g filter="url(#filter1_d_824_53)">
<circle cx="40" cy="36" r="17.5" stroke="white" stroke-width="5" shape-rendering="crispEdges"/>
</g>
<g filter="url(#filter2_d_824_53)">
<path d="M37.2145 47.6665V30.212H42.7713V47.6665H37.2145ZM39.9986 28.1779C39.2183 28.1779 38.5478 27.9203 37.9872 27.4051C37.4266 26.8824 37.1463 26.2536 37.1463 25.5188C37.1463 24.7915 37.4266 24.1703 37.9872 23.6551C38.5478 23.1324 39.2183 22.871 39.9986 22.871C40.7865 22.871 41.4569 23.1324 42.0099 23.6551C42.5705 24.1703 42.8509 24.7915 42.8509 25.5188C42.8509 26.2536 42.5705 26.8824 42.0099 27.4051C41.4569 27.9203 40.7865 28.1779 39.9986 28.1779Z" fill="white"/>
</g>
</g>
<defs>
<filter id="filter0_d_824_53" x="0" y="0" width="80" height="80" filterUnits="userSpaceOnUse" color-interpolation-filters="sRGB">
<feFlood flood-opacity="0" result="BackgroundImageFix"/>
<feColorMatrix in="SourceAlpha" type="matrix" values="0 0 0 0 0 0 0 0 0 0 0 0 0 0 0 0 0 0 127 0" result="hardAlpha"/>
<feOffset dy="4"/>
<feGaussianBlur stdDeviation="10"/>
<feComposite in2="hardAlpha" operator="out"/>
<feColorMatrix type="matrix" values="0 0 0 0 0 0 0 0 0 1 0 0 0 0 0.95 0 0 0 1 0"/>
<feBlend mode="normal" in2="BackgroundImageFix" result="effect1_dropShadow_824_53"/>
<feBlend mode="normal" in="SourceGraphic" in2="effect1_dropShadow_824_53" result="shape"/>
</filter>
<filter id="filter1_d_824_53" x="16" y="16" width="48" height="48" filterUnits="userSpaceOnUse" color-interpolation-filters="sRGB">
<feFlood flood-opacity="0" result="BackgroundImageFix"/>
<feColorMatrix in="SourceAlpha" type="matrix" values="0 0 0 0 0 0 0 0 0 0 0 0 0 0 0 0 0 0 127 0" result="hardAlpha"/>
<feOffset dy="4"/>
<feGaussianBlur stdDeviation="2"/>
<feComposite in2="hardAlpha" operator="out"/>
<feColorMatrix type="matrix" values="0 0 0 0 0 0 0 0 0 0 0 0 0 0 0 0 0 0 0.25 0"/>
<feBlend mode="normal" in2="BackgroundImageFix" result="effect1_dropShadow_824_53"/>
<feBlend mode="normal" in="SourceGraphic" in2="effect1_dropShadow_824_53" result="shape"/>
</filter>
<filter id="filter2_d_824_53" x="17.1465" y="6.87109" width="45.7051" height="64.7954" filterUnits="userSpaceOnUse" color-interpolation-filters="sRGB">
<feFlood flood-opacity="0" result="BackgroundImageFix"/>
<feColorMatrix in="SourceAlpha" type="matrix" values="0 0 0 0 0 0 0 0 0 0 0 0 0 0 0 0 0 0 127 0" result="hardAlpha"/>
<feOffset dy="4"/>
<feGaussianBlur stdDeviation="10"/>
<feComposite in2="hardAlpha" operator="out"/>
<feColorMatrix type="matrix" values="0 0 0 0 0.482353 0 0 0 0 0.929412 0 0 0 0 0.882353 0 0 0 1 0"/>
<feBlend mode="normal" in2="BackgroundImageFix" result="effect1_dropShadow_824_53"/>
<feBlend mode="normal" in="SourceGraphic" in2="effect1_dropShadow_824_53" result="shape"/>
</filter>
</defs>
</svg>
